<svg width="24" height="24" viewBox="0 0 24 24" fill="none" xmlns="http://www.w3.org/2000/svg">
<mask id="mask0_1202_69718" style="mask-type:alpha" maskUnits="userSpaceOnUse" x="0" y="0" width="24" height="24">
<rect width="24" height="24" fill="#D9D9D9"/>
</mask>
<g mask="url(#mask0_1202_69718)">
<path d="M9 18.0039C8.45 18.0039 7.97917 17.8081 7.5875 17.4164C7.19583 17.0247 7 16.5539 7 16.0039V4.00391C7 3.45391 7.19583 2.98307 7.5875 2.59141C7.97917 2.19974 8.45 2.00391 9 2.00391H18C18.55 2.00391 19.0208 2.19974 19.4125 2.59141C19.8042 2.98307 20 3.45391 20 4.00391V16.0039C20 16.5539 19.8042 17.0247 19.4125 17.4164C19.0208 17.8081 18.55 18.0039 18 18.0039H9ZM9 16.0039H18V4.00391H9V16.0039ZM5 22.0039C4.45 22.0039 3.97917 21.8081 3.5875 21.4164C3.19583 21.0247 3 20.5539 3 20.0039V6.00391H5V20.0039H16V22.0039H5Z" fill="#767D86"/>
</g>
</svg>
