<svg width="94" height="24" viewBox="0 0 94 24" fill="none" xmlns="http://www.w3.org/2000/svg">
<mask id="mask0_2302_16781" style="mask-type:alpha" maskUnits="userSpaceOnUse" x="0" y="0" width="24" height="24">
<rect width="24" height="24" fill="#D9D9D9"/>
</mask>
<g mask="url(#mask0_2302_16781)">
<path d="M11 13.001H5V11.001H11V5.00098H13V11.001H19V13.001H13V19.001H11V13.001Z" fill="white"/>
</g>
<path d="M34.4908 9.04C34.4908 10.2453 34.6988 11.3333 35.1148 12.304C35.5308 13.2747 36.1601 13.9947 37.0028 14.464L36.0268 15.808C34.9281 15.1893 34.1494 14.1227 33.6908 12.608C33.4561 13.408 33.1308 14.1173 32.7148 14.736C32.2988 15.344 31.7974 15.8293 31.2108 16.192L30.1867 14.928C31.0934 14.3733 31.7761 13.5733 32.2348 12.528C32.6934 11.4827 32.9228 10.3573 32.9228 9.152V6.768H34.4908V9.04ZM41.5148 18.944H39.9468V12.224H38.6667V18.288H37.1308V5.84H38.6667V10.832H39.9468V5.6H41.5148V18.944ZM54.2801 17.408H42.5201V15.984H47.5601V13.888H43.9121V9.488H51.2561V7.904H43.8961V6.496H52.9041V10.832H45.5441V12.48H53.1921V13.888H49.1921V15.984H54.2801V17.408ZM66.3735 13.552H61.4455V15.952H59.7655V13.552H54.6135V12.176H66.3735V13.552ZM65.0615 18.688H56.0535V14.704H57.7175V17.28H65.0615V18.688ZM60.4855 5.872C61.4028 5.872 62.2082 5.984 62.9015 6.208C63.6055 6.432 64.1495 6.75733 64.5335 7.184C64.9175 7.6 65.1095 8.08533 65.1095 8.64C65.1095 9.19467 64.9175 9.68 64.5335 10.096C64.1495 10.5013 63.6055 10.816 62.9015 11.04C62.2082 11.264 61.4028 11.376 60.4855 11.376C59.5682 11.376 58.7628 11.264 58.0695 11.04C57.3762 10.816 56.8375 10.5013 56.4535 10.096C56.0695 9.68 55.8775 9.19467 55.8775 8.64C55.8775 8.08533 56.0695 7.6 56.4535 7.184C56.8375 6.75733 57.3762 6.432 58.0695 6.208C58.7628 5.984 59.5682 5.872 60.4855 5.872ZM60.4855 7.264C59.6002 7.264 58.9015 7.38667 58.3895 7.632C57.8775 7.86667 57.6215 8.20267 57.6215 8.64C57.6215 9.056 57.8775 9.38667 58.3895 9.632C58.9122 9.86667 59.6108 9.984 60.4855 9.984C61.3602 9.984 62.0535 9.86667 62.5655 9.632C63.0882 9.38667 63.3495 9.056 63.3495 8.64C63.3495 8.20267 63.0935 7.86667 62.5815 7.632C62.0695 7.38667 61.3708 7.264 60.4855 7.264ZM74.6345 9.376C74.6345 10.112 74.7625 10.8373 75.0185 11.552C75.2852 12.256 75.6638 12.8907 76.1545 13.456C76.6558 14.0107 77.2478 14.432 77.9305 14.72L77.0185 16.08C76.2825 15.7493 75.6425 15.2587 75.0985 14.608C74.5545 13.9467 74.1332 13.184 73.8345 12.32C73.5252 13.2587 73.0932 14.0853 72.5385 14.8C71.9945 15.5147 71.3545 16.0533 70.6185 16.416L69.6745 15.056C70.3358 14.7467 70.9172 14.288 71.4185 13.68C71.9198 13.072 72.2985 12.3947 72.5545 11.648C72.8212 10.8907 72.9545 10.1333 72.9545 9.376V8.336H70.1545V6.928H77.4185V8.336H74.6345V9.376ZM80.4585 18.944H78.7945V5.6H80.4585V18.944ZM92.3279 13.024H88.5359V15.968H93.6239V17.376H81.8639V15.968H86.9039V13.024H83.2879V6.592H92.2159V7.968H84.9359V11.616H92.3279V13.024Z" fill="white"/>
</svg>
