<svg width="24" height="24" viewBox="0 0 24 24" fill="none" xmlns="http://www.w3.org/2000/svg">
<mask id="mask0_1398_18406" style="mask-type:alpha" maskUnits="userSpaceOnUse" x="0" y="0" width="24" height="24">
<rect width="24" height="24" fill="#D9D9D9"/>
</mask>
<g mask="url(#mask0_1398_18406)">
<path d="M12 22.001C10.6333 22.001 9.34167 21.7385 8.125 21.2135C6.90833 20.6885 5.84583 19.9718 4.9375 19.0635C4.02917 18.1551 3.3125 17.0926 2.7875 15.876C2.2625 14.6593 2 13.3676 2 12.001C2 10.6176 2.2625 9.32181 2.7875 8.11348C3.3125 6.90514 4.02917 5.84681 4.9375 4.93848C5.84583 4.03014 6.90833 3.31348 8.125 2.78848C9.34167 2.26348 10.6333 2.00098 12 2.00098C13.3833 2.00098 14.6792 2.26348 15.8875 2.78848C17.0958 3.31348 18.1542 4.03014 19.0625 4.93848C19.9708 5.84681 20.6875 6.90514 21.2125 8.11348C21.7375 9.32181 22 10.6176 22 12.001C22 13.3676 21.7375 14.6593 21.2125 15.876C20.6875 17.0926 19.9708 18.1551 19.0625 19.0635C18.1542 19.9718 17.0958 20.6885 15.8875 21.2135C14.6792 21.7385 13.3833 22.001 12 22.001ZM12 19.951C12.4333 19.351 12.8083 18.726 13.125 18.076C13.4417 17.426 13.7 16.7343 13.9 16.001H10.1C10.3 16.7343 10.5583 17.426 10.875 18.076C11.1917 18.726 11.5667 19.351 12 19.951ZM9.4 19.551C9.1 19.001 8.8375 18.4301 8.6125 17.8385C8.3875 17.2468 8.2 16.6343 8.05 16.001H5.1C5.58333 16.8343 6.1875 17.5593 6.9125 18.176C7.6375 18.7926 8.46667 19.251 9.4 19.551ZM14.6 19.551C15.5333 19.251 16.3625 18.7926 17.0875 18.176C17.8125 17.5593 18.4167 16.8343 18.9 16.001H15.95C15.8 16.6343 15.6125 17.2468 15.3875 17.8385C15.1625 18.4301 14.9 19.001 14.6 19.551ZM4.25 14.001H7.65C7.6 13.6676 7.5625 13.3385 7.5375 13.0135C7.5125 12.6885 7.5 12.351 7.5 12.001C7.5 11.651 7.5125 11.3135 7.5375 10.9885C7.5625 10.6635 7.6 10.3343 7.65 10.001H4.25C4.16667 10.3343 4.10417 10.6635 4.0625 10.9885C4.02083 11.3135 4 11.651 4 12.001C4 12.351 4.02083 12.6885 4.0625 13.0135C4.10417 13.3385 4.16667 13.6676 4.25 14.001ZM9.65 14.001H14.35C14.4 13.6676 14.4375 13.3385 14.4625 13.0135C14.4875 12.6885 14.5 12.351 14.5 12.001C14.5 11.651 14.4875 11.3135 14.4625 10.9885C14.4375 10.6635 14.4 10.3343 14.35 10.001H9.65C9.6 10.3343 9.5625 10.6635 9.5375 10.9885C9.5125 11.3135 9.5 11.651 9.5 12.001C9.5 12.351 9.5125 12.6885 9.5375 13.0135C9.5625 13.3385 9.6 13.6676 9.65 14.001ZM16.35 14.001H19.75C19.8333 13.6676 19.8958 13.3385 19.9375 13.0135C19.9792 12.6885 20 12.351 20 12.001C20 11.651 19.9792 11.3135 19.9375 10.9885C19.8958 10.6635 19.8333 10.3343 19.75 10.001H16.35C16.4 10.3343 16.4375 10.6635 16.4625 10.9885C16.4875 11.3135 16.5 11.651 16.5 12.001C16.5 12.351 16.4875 12.6885 16.4625 13.0135C16.4375 13.3385 16.4 13.6676 16.35 14.001ZM15.95 8.00098H18.9C18.4167 7.16764 17.8125 6.44264 17.0875 5.82598C16.3625 5.20931 15.5333 4.75098 14.6 4.45098C14.9 5.00098 15.1625 5.57181 15.3875 6.16348C15.6125 6.75514 15.8 7.36764 15.95 8.00098ZM10.1 8.00098H13.9C13.7 7.26764 13.4417 6.57598 13.125 5.92598C12.8083 5.27598 12.4333 4.65098 12 4.05098C11.5667 4.65098 11.1917 5.27598 10.875 5.92598C10.5583 6.57598 10.3 7.26764 10.1 8.00098ZM5.1 8.00098H8.05C8.2 7.36764 8.3875 6.75514 8.6125 6.16348C8.8375 5.57181 9.1 5.00098 9.4 4.45098C8.46667 4.75098 7.6375 5.20931 6.9125 5.82598C6.1875 6.44264 5.58333 7.16764 5.1 8.00098Z" fill="#A3ABB3"/>
</g>
</svg>
