<svg width="14" height="14" viewBox="0 0 14 14" fill="none" xmlns="http://www.w3.org/2000/svg">
<path d="M7.00016 13.6673C6.08905 13.6673 5.22794 13.4923 4.41683 13.1423C3.60572 12.7923 2.89738 12.3145 2.29183 11.709C1.68627 11.1034 1.2085 10.3951 0.858496 9.58398C0.508496 8.77287 0.333496 7.91176 0.333496 7.00065C0.333496 6.07843 0.508496 5.21454 0.858496 4.40898C1.2085 3.60343 1.68627 2.89787 2.29183 2.29232C2.89738 1.68676 3.60572 1.20898 4.41683 0.858984C5.22794 0.508984 6.08905 0.333984 7.00016 0.333984C7.92238 0.333984 8.78627 0.508984 9.59183 0.858984C10.3974 1.20898 11.1029 1.68676 11.7085 2.29232C12.3141 2.89787 12.7918 3.60343 13.1418 4.40898C13.4918 5.21454 13.6668 6.07843 13.6668 7.00065C13.6668 7.91176 13.4918 8.77287 13.1418 9.58398C12.7918 10.3951 12.3141 11.1034 11.7085 11.709C11.1029 12.3145 10.3974 12.7923 9.59183 13.1423C8.78627 13.4923 7.92238 13.6673 7.00016 13.6673ZM7.00016 12.3007C7.28905 11.9007 7.53905 11.484 7.75016 11.0507C7.96127 10.6173 8.1335 10.1562 8.26683 9.66732H5.7335C5.86683 10.1562 6.03905 10.6173 6.25016 11.0507C6.46127 11.484 6.71127 11.9007 7.00016 12.3007ZM5.26683 12.034C5.06683 11.6673 4.89183 11.2868 4.74183 10.8923C4.59183 10.4979 4.46683 10.0895 4.36683 9.66732H2.40016C2.72238 10.2229 3.12516 10.7062 3.6085 11.1173C4.09183 11.5284 4.64461 11.834 5.26683 12.034ZM8.7335 12.034C9.35572 11.834 9.9085 11.5284 10.3918 11.1173C10.8752 10.7062 11.2779 10.2229 11.6002 9.66732H9.6335C9.53349 10.0895 9.4085 10.4979 9.2585 10.8923C9.1085 11.2868 8.9335 11.6673 8.7335 12.034ZM1.8335 8.33398H4.10016C4.06683 8.11176 4.04183 7.89232 4.02516 7.67565C4.0085 7.45898 4.00016 7.23398 4.00016 7.00065C4.00016 6.76732 4.0085 6.54232 4.02516 6.32565C4.04183 6.10898 4.06683 5.88954 4.10016 5.66732H1.8335C1.77794 5.88954 1.73627 6.10898 1.7085 6.32565C1.68072 6.54232 1.66683 6.76732 1.66683 7.00065C1.66683 7.23398 1.68072 7.45898 1.7085 7.67565C1.73627 7.89232 1.77794 8.11176 1.8335 8.33398ZM5.4335 8.33398H8.56683C8.60016 8.11176 8.62516 7.89232 8.64183 7.67565C8.6585 7.45898 8.66683 7.23398 8.66683 7.00065C8.66683 6.76732 8.6585 6.54232 8.64183 6.32565C8.62516 6.10898 8.60016 5.88954 8.56683 5.66732H5.4335C5.40016 5.88954 5.37516 6.10898 5.3585 6.32565C5.34183 6.54232 5.3335 6.76732 5.3335 7.00065C5.3335 7.23398 5.34183 7.45898 5.3585 7.67565C5.37516 7.89232 5.40016 8.11176 5.4335 8.33398ZM9.90016 8.33398H12.1668C12.2224 8.11176 12.2641 7.89232 12.2918 7.67565C12.3196 7.45898 12.3335 7.23398 12.3335 7.00065C12.3335 6.76732 12.3196 6.54232 12.2918 6.32565C12.2641 6.10898 12.2224 5.88954 12.1668 5.66732H9.90016C9.9335 5.88954 9.9585 6.10898 9.97516 6.32565C9.99183 6.54232 10.0002 6.76732 10.0002 7.00065C10.0002 7.23398 9.99183 7.45898 9.97516 7.67565C9.9585 7.89232 9.9335 8.11176 9.90016 8.33398ZM9.6335 4.33398H11.6002C11.2779 3.77843 10.8752 3.2951 10.3918 2.88398C9.9085 2.47287 9.35572 2.16732 8.7335 1.96732C8.9335 2.33398 9.1085 2.71454 9.2585 3.10898C9.4085 3.50343 9.53349 3.91176 9.6335 4.33398ZM5.7335 4.33398H8.26683C8.1335 3.8451 7.96127 3.38398 7.75016 2.95065C7.53905 2.51732 7.28905 2.10065 7.00016 1.70065C6.71127 2.10065 6.46127 2.51732 6.25016 2.95065C6.03905 3.38398 5.86683 3.8451 5.7335 4.33398ZM2.40016 4.33398H4.36683C4.46683 3.91176 4.59183 3.50343 4.74183 3.10898C4.89183 2.71454 5.06683 2.33398 5.26683 1.96732C4.64461 2.16732 4.09183 2.47287 3.6085 2.88398C3.12516 3.2951 2.72238 3.77843 2.40016 4.33398Z" fill="#A3ABB3"/>
</svg>
