<svg width="24" height="24" viewBox="0 0 24 24" fill="none" xmlns="http://www.w3.org/2000/svg">
<mask id="mask0_929_12519" style="mask-type:alpha" maskUnits="userSpaceOnUse" x="0" y="0" width="24" height="24">
<rect width="24" height="24" fill="#D9D9D9"/>
</mask>
<g mask="url(#mask0_929_12519)">
<path d="M12 15.5C12.1983 15.5 12.3646 15.4329 12.4988 15.2987C12.6329 15.1646 12.7 14.9983 12.7 14.8C12.7 14.6017 12.6329 14.4354 12.4988 14.3013C12.3646 14.1671 12.1983 14.1 12 14.1C11.8017 14.1 11.6354 14.1671 11.5013 14.3013C11.3671 14.4354 11.3 14.6017 11.3 14.8C11.3 14.9983 11.3671 15.1646 11.5013 15.2987C11.6354 15.4329 11.8017 15.5 12 15.5ZM11.3 12.7H12.7V8.5H11.3V12.7ZM12 19C11.0317 19 10.1217 18.8162 9.27 18.4487C8.41833 18.0812 7.6775 17.5825 7.0475 16.9525C6.4175 16.3225 5.91875 15.5817 5.55125 14.73C5.18375 13.8783 5 12.9683 5 12C5 11.0317 5.18375 10.1217 5.55125 9.27C5.91875 8.41833 6.4175 7.6775 7.0475 7.0475C7.6775 6.4175 8.41833 5.91875 9.27 5.55125C10.1217 5.18375 11.0317 5 12 5C12.9683 5 13.8783 5.18375 14.73 5.55125C15.5817 5.91875 16.3225 6.4175 16.9525 7.0475C17.5825 7.6775 18.0812 8.41833 18.4487 9.27C18.8162 10.1217 19 11.0317 19 12C19 12.9683 18.8162 13.8783 18.4487 14.73C18.0812 15.5817 17.5825 16.3225 16.9525 16.9525C16.3225 17.5825 15.5817 18.0812 14.73 18.4487C13.8783 18.8162 12.9683 19 12 19Z" fill="#FF4B12"/>
</g>
</svg>
