<svg width="78" height="30" viewBox="0 0 78 30" fill="none" xmlns="http://www.w3.org/2000/svg">
<mask id="mask0_864_16975" style="mask-type:alpha" maskUnits="userSpaceOnUse" x="0" y="3" width="24" height="24">
<rect y="3" width="24" height="24" fill="#D9D9D9"/>
</mask>
<g mask="url(#mask0_864_16975)">
<path d="M17.55 15L14 11.45L15.425 10.05L17.55 12.175L21.8 7.925L23.2 9.35L17.55 15ZM9 15C7.9 15 6.95833 14.6083 6.175 13.825C5.39167 13.0417 5 12.1 5 11C5 9.9 5.39167 8.95833 6.175 8.175C6.95833 7.39167 7.9 7 9 7C10.1 7 11.0417 7.39167 11.825 8.175C12.6083 8.95833 13 9.9 13 11C13 12.1 12.6083 13.0417 11.825 13.825C11.0417 14.6083 10.1 15 9 15ZM1 23V20.2C1 19.6333 1.14583 19.1125 1.4375 18.6375C1.72917 18.1625 2.11667 17.8 2.6 17.55C3.63333 17.0333 4.68333 16.6458 5.75 16.3875C6.81667 16.1292 7.9 16 9 16C10.1 16 11.1833 16.1292 12.25 16.3875C13.3167 16.6458 14.3667 17.0333 15.4 17.55C15.8833 17.8 16.2708 18.1625 16.5625 18.6375C16.8542 19.1125 17 19.6333 17 20.2V23H1ZM3 21H15V20.2C15 20.0167 14.9542 19.85 14.8625 19.7C14.7708 19.55 14.65 19.4333 14.5 19.35C13.6 18.9 12.6917 18.5625 11.775 18.3375C10.8583 18.1125 9.93333 18 9 18C8.06667 18 7.14167 18.1125 6.225 18.3375C5.30833 18.5625 4.4 18.9 3.5 19.35C3.35 19.4333 3.22917 19.55 3.1375 19.7C3.04583 19.85 3 20.0167 3 20.2V21ZM9 13C9.55 13 10.0208 12.8042 10.4125 12.4125C10.8042 12.0208 11 11.55 11 11C11 10.45 10.8042 9.97917 10.4125 9.5875C10.0208 9.19583 9.55 9 9 9C8.45 9 7.97917 9.19583 7.5875 9.5875C7.19583 9.97917 7 10.45 7 11C7 11.55 7.19583 12.0208 7.5875 12.4125C7.97917 12.8042 8.45 13 9 13Z" fill="#111111"/>
</g>
<path d="M41.3 9.24H39.92V12.76L41.92 12.58L41.98 14.16C40.58 14.3867 39.0933 14.5333 37.52 14.6C35.96 14.6667 34.26 14.7 32.42 14.7L32.18 12.98H34.02V9.24H32.62V7.56H41.3V9.24ZM44.94 9.88H47.16V11.66H44.94V15.1H42.92V6.5H44.94V9.88ZM44.94 20.12H36.42V21.32H45.44V23.04H34.4V18.56H42.94V17.44H34.4V15.76H44.94V20.12ZM37.92 12.88V9.24H36V12.94L37.92 12.88ZM62.0767 21.26H47.3767V19.48H53.6767V16.86H49.1167V11.36H58.2967V9.38H49.0967V7.62H60.3567V13.04H51.1567V15.1H60.7167V16.86H55.7167V19.48H62.0767V21.26ZM75.9134 16.36H73.8534V6.5H75.9134V16.36ZM70.4734 16.62C72.1801 16.62 73.5201 16.9133 74.4934 17.5C75.4668 18.0733 75.9534 18.8733 75.9534 19.9C75.9534 20.9133 75.4601 21.7067 74.4734 22.28C73.5001 22.8533 72.1668 23.14 70.4734 23.14C68.7534 23.14 67.4068 22.8533 66.4334 22.28C65.4601 21.7067 64.9734 20.9133 64.9734 19.9C64.9734 18.86 65.4601 18.0533 66.4334 17.48C67.4068 16.9067 68.7534 16.62 70.4734 16.62ZM70.4734 18.34C69.3534 18.34 68.5001 18.4733 67.9134 18.74C67.3268 18.9933 67.0334 19.38 67.0334 19.9C67.0334 20.4067 67.3268 20.7933 67.9134 21.06C68.5001 21.3267 69.3534 21.46 70.4734 21.46C71.5801 21.46 72.4334 21.3267 73.0334 21.06C73.6334 20.7933 73.9334 20.4067 73.9334 19.9C73.9334 19.38 73.6334 18.9933 73.0334 18.74C72.4468 18.4733 71.5934 18.34 70.4734 18.34ZM67.1334 7.5C67.9601 7.5 68.7001 7.67333 69.3534 8.02C70.0201 8.35333 70.5401 8.82 70.9134 9.42C71.3001 10.02 71.4934 10.7 71.4934 11.46C71.4934 12.2333 71.3001 12.92 70.9134 13.52C70.5401 14.12 70.0201 14.5867 69.3534 14.92C68.7001 15.2533 67.9601 15.42 67.1334 15.42C66.3201 15.42 65.5801 15.2533 64.9134 14.92C64.2601 14.5867 63.7401 14.12 63.3534 13.52C62.9801 12.92 62.7934 12.2333 62.7934 11.46C62.7934 10.7 62.9801 10.02 63.3534 9.42C63.7401 8.80667 64.2601 8.33333 64.9134 8C65.5801 7.66667 66.3201 7.5 67.1334 7.5ZM67.1334 9.3C66.4401 9.3 65.8734 9.5 65.4334 9.9C65.0068 10.2867 64.7934 10.8067 64.7934 11.46C64.7934 12.1267 65.0068 12.6533 65.4334 13.04C65.8601 13.4133 66.4268 13.6 67.1334 13.6C67.8268 13.6 68.3868 13.4067 68.8134 13.02C69.2401 12.6333 69.4534 12.1133 69.4534 11.46C69.4534 10.8067 69.2401 10.2867 68.8134 9.9C68.3868 9.5 67.8268 9.3 67.1334 9.3Z" fill="#111111"/>
</svg>
