<svg width="112" height="30" viewBox="0 0 112 30" fill="none" xmlns="http://www.w3.org/2000/svg">
<mask id="mask0_2590_5711" style="mask-type:alpha" maskUnits="userSpaceOnUse" x="0" y="3" width="24" height="24">
<rect y="3" width="24" height="24" fill="#D9D9D9"/>
</mask>
<g mask="url(#mask0_2590_5711)">
<path d="M12 14.999C10.9 14.999 9.95833 14.6074 9.175 13.824C8.39167 13.0407 8 12.099 8 10.999C8 9.89902 8.39167 8.95736 9.175 8.17402C9.95833 7.39069 10.9 6.99902 12 6.99902C13.1 6.99902 14.0417 7.39069 14.825 8.17402C15.6083 8.95736 16 9.89902 16 10.999C16 12.099 15.6083 13.0407 14.825 13.824C14.0417 14.6074 13.1 14.999 12 14.999ZM4 22.999V20.199C4 19.6324 4.14583 19.1115 4.4375 18.6365C4.72917 18.1615 5.11667 17.799 5.6 17.549C6.63333 17.0324 7.68333 16.6449 8.75 16.3865C9.81667 16.1282 10.9 15.999 12 15.999C13.1 15.999 14.1833 16.1282 15.25 16.3865C16.3167 16.6449 17.3667 17.0324 18.4 17.549C18.8833 17.799 19.2708 18.1615 19.5625 18.6365C19.8542 19.1115 20 19.6324 20 20.199V22.999H4ZM6 20.999H18V20.199C18 20.0157 17.9542 19.849 17.8625 19.699C17.7708 19.549 17.65 19.4324 17.5 19.349C16.6 18.899 15.6917 18.5615 14.775 18.3365C13.8583 18.1115 12.9333 17.999 12 17.999C11.0667 17.999 10.1417 18.1115 9.225 18.3365C8.30833 18.5615 7.4 18.899 6.5 19.349C6.35 19.4324 6.22917 19.549 6.1375 19.699C6.04583 19.849 6 20.0157 6 20.199V20.999ZM12 12.999C12.55 12.999 13.0208 12.8032 13.4125 12.4115C13.8042 12.0199 14 11.549 14 10.999C14 10.449 13.8042 9.97819 13.4125 9.58652C13.0208 9.19486 12.55 8.99902 12 8.99902C11.45 8.99902 10.9792 9.19486 10.5875 9.58652C10.1958 9.97819 10 10.449 10 10.999C10 11.549 10.1958 12.0199 10.5875 12.4115C10.9792 12.8032 11.45 12.999 12 12.999Z" fill="#111111"/>
</g>
<path d="M46.94 21.18H32.24V19.36H46.94V21.18ZM45.68 9.78H43.36V14.96H45.62V16.66H33.5V14.96H35.74V9.78H33.44V8.02H45.68V9.78ZM41.32 14.96V9.78H37.78V14.96H41.32ZM62.0767 21.26H47.3767V19.48H53.6767V16.86H49.1167V11.36H58.2967V9.38H49.0967V7.62H60.3567V13.04H51.1567V15.1H60.7167V16.86H55.7167V19.48H62.0767V21.26ZM75.9534 15.1H73.8734V6.5H75.9534V15.1ZM75.9534 20.12H67.1934V21.32H76.4134V23.04H65.1334V18.56H73.9334V17.44H65.1134V15.76H75.9534V20.12ZM71.9534 9.24H70.5534V12.74C71.4468 12.66 72.1268 12.5933 72.5934 12.54L72.6934 14.1C70.2268 14.5 67.0001 14.7 63.0134 14.7L62.7934 12.98L64.5934 12.96V9.24H63.2134V7.56H71.9534V9.24ZM68.5534 12.86V9.24H66.5534V12.92L68.5534 12.86ZM94.8997 18.82H92.8597V14.54H90.6997L90.7997 16.12C88.5464 16.4933 85.4997 16.68 81.6597 16.68L81.3997 14.9H83.2197V9.5H81.8597V7.74H90.3997V9.5H88.9997V14.68L90.6197 14.52V12.76H92.8597V11.26H90.6197V9.48H92.8597V6.5H94.8997V18.82ZM95.2997 22.86H84.2997V17.84H86.3597V21.12H95.2997V22.86ZM87.0397 14.8V9.5H85.1997V14.86L87.0397 14.8ZM106.036 9.22H102.716C102.743 10.1933 103.096 11.0867 103.776 11.9C104.456 12.7133 105.403 13.3 106.616 13.66L105.616 15.32C104.696 15.0533 103.903 14.64 103.236 14.08C102.583 13.52 102.07 12.8467 101.696 12.06C101.323 12.9 100.79 13.6267 100.096 14.24C99.4164 14.8533 98.6097 15.3133 97.6764 15.62L96.6164 13.94C97.8697 13.5667 98.8431 12.9467 99.5364 12.08C100.23 11.2133 100.59 10.26 100.616 9.22H97.2164V7.48H106.036V9.22ZM109.956 15.58H107.896V6.5H109.956V15.58ZM101.316 17.92H107.916V16.24H109.956V22.96H99.3164V16.24H101.316V17.92ZM107.916 21.22V19.6H101.316V21.22H107.916Z" fill="#111111"/>
</svg>
