<svg width="78" height="30" viewBox="0 0 78 30" fill="none" xmlns="http://www.w3.org/2000/svg">
<mask id="mask0_929_12614" style="mask-type:alpha" maskUnits="userSpaceOnUse" x="0" y="3" width="24" height="24">
<rect y="3" width="24" height="24" fill="#D9D9D9"/>
</mask>
<g mask="url(#mask0_929_12614)">
<path d="M18 17V14H15V12H18V9H20V12H23V14H20V17H18ZM9 15C7.9 15 6.95833 14.6083 6.175 13.825C5.39167 13.0417 5 12.1 5 11C5 9.9 5.39167 8.95833 6.175 8.175C6.95833 7.39167 7.9 7 9 7C10.1 7 11.0417 7.39167 11.825 8.175C12.6083 8.95833 13 9.9 13 11C13 12.1 12.6083 13.0417 11.825 13.825C11.0417 14.6083 10.1 15 9 15ZM1 23V20.2C1 19.6333 1.14583 19.1125 1.4375 18.6375C1.72917 18.1625 2.11667 17.8 2.6 17.55C3.63333 17.0333 4.68333 16.6458 5.75 16.3875C6.81667 16.1292 7.9 16 9 16C10.1 16 11.1833 16.1292 12.25 16.3875C13.3167 16.6458 14.3667 17.0333 15.4 17.55C15.8833 17.8 16.2708 18.1625 16.5625 18.6375C16.8542 19.1125 17 19.6333 17 20.2V23H1ZM3 21H15V20.2C15 20.0167 14.9542 19.85 14.8625 19.7C14.7708 19.55 14.65 19.4333 14.5 19.35C13.6 18.9 12.6917 18.5625 11.775 18.3375C10.8583 18.1125 9.93333 18 9 18C8.06667 18 7.14167 18.1125 6.225 18.3375C5.30833 18.5625 4.4 18.9 3.5 19.35C3.35 19.4333 3.22917 19.55 3.1375 19.7C3.04583 19.85 3 20.0167 3 20.2V21ZM9 13C9.55 13 10.0208 12.8042 10.4125 12.4125C10.8042 12.0208 11 11.55 11 11C11 10.45 10.8042 9.97917 10.4125 9.5875C10.0208 9.19583 9.55 9 9 9C8.45 9 7.97917 9.19583 7.5875 9.5875C7.19583 9.97917 7 10.45 7 11C7 11.55 7.19583 12.0208 7.5875 12.4125C7.97917 12.8042 8.45 13 9 13Z" fill="#111111"/>
</g>
<path d="M41.3 9.24H39.92V12.76L41.92 12.58L41.98 14.16C40.58 14.3867 39.0933 14.5333 37.52 14.6C35.96 14.6667 34.26 14.7 32.42 14.7L32.18 12.98H34.02V9.24H32.62V7.56H41.3V9.24ZM44.94 9.88H47.16V11.66H44.94V15.1H42.92V6.5H44.94V9.88ZM44.94 20.12H36.42V21.32H45.44V23.04H34.4V18.56H42.94V17.44H34.4V15.76H44.94V20.12ZM37.92 12.88V9.24H36V12.94L37.92 12.88ZM62.0767 21.26H47.3767V19.48H53.6767V16.86H49.1167V11.36H58.2967V9.38H49.0967V7.62H60.3567V13.04H51.1567V15.1H60.7167V16.86H55.7167V19.48H62.0767V21.26ZM76.0934 23.16H74.0334V19.38H70.6534V17.74H74.0334V6.5H76.0934V23.16ZM62.4534 15.02C64.5334 15.02 66.4201 14.9933 68.1134 14.94C69.8068 14.8733 71.4201 14.7267 72.9534 14.5L73.0534 16.12C71.7334 16.36 70.2601 16.5333 68.6334 16.64V22.66H66.5734V16.76C65.6534 16.8 64.3668 16.82 62.7134 16.82L62.4534 15.02ZM67.6934 7.22C68.4801 7.22 69.1801 7.36667 69.7934 7.66C70.4201 7.94 70.9068 8.34 71.2534 8.86C71.6134 9.38 71.7934 9.96667 71.7934 10.62C71.7934 11.3 71.6134 11.8933 71.2534 12.4C70.9068 12.9067 70.4201 13.3 69.7934 13.58C69.1801 13.86 68.4801 14 67.6934 14C66.9068 14 66.2001 13.86 65.5734 13.58C64.9468 13.3 64.4534 12.9067 64.0934 12.4C63.7468 11.8933 63.5734 11.3 63.5734 10.62C63.5734 9.96667 63.7468 9.38 64.0934 8.86C64.4534 8.34 64.9468 7.94 65.5734 7.66C66.2001 7.36667 66.9068 7.22 67.6934 7.22ZM67.6934 8.9C67.0401 8.9 66.5134 9.06 66.1134 9.38C65.7268 9.68667 65.5334 10.1 65.5334 10.62C65.5334 11.1533 65.7268 11.58 66.1134 11.9C66.5134 12.2067 67.0401 12.36 67.6934 12.36C68.3468 12.36 68.8734 12.2067 69.2734 11.9C69.6734 11.58 69.8734 11.1533 69.8734 10.62C69.8734 10.1 69.6734 9.68667 69.2734 9.38C68.8734 9.06 68.3468 8.9 67.6934 8.9Z" fill="#111111"/>
</svg>
