<svg width="24" height="24" viewBox="0 0 24 24" fill="none" xmlns="http://www.w3.org/2000/svg">
<mask id="mask0_1144_45700" style="mask-type:alpha" maskUnits="userSpaceOnUse" x="0" y="0" width="24" height="24">
<rect width="24" height="24" fill="#D9D9D9"/>
</mask>
<g mask="url(#mask0_1144_45700)">
<path d="M11.3 15.5H12.7V11.3H11.3V15.5ZM12 9.9C12.1983 9.9 12.3646 9.83292 12.4988 9.69875C12.6329 9.56458 12.7 9.39833 12.7 9.2C12.7 9.00167 12.6329 8.83542 12.4988 8.70125C12.3646 8.56708 12.1983 8.5 12 8.5C11.8017 8.5 11.6354 8.56708 11.5013 8.70125C11.3671 8.83542 11.3 9.00167 11.3 9.2C11.3 9.39833 11.3671 9.56458 11.5013 9.69875C11.6354 9.83292 11.8017 9.9 12 9.9ZM12 19C11.0317 19 10.1217 18.8162 9.27 18.4487C8.41833 18.0812 7.6775 17.5825 7.0475 16.9525C6.4175 16.3225 5.91875 15.5817 5.55125 14.73C5.18375 13.8783 5 12.9683 5 12C5 11.0317 5.18375 10.1217 5.55125 9.27C5.91875 8.41833 6.4175 7.6775 7.0475 7.0475C7.6775 6.4175 8.41833 5.91875 9.27 5.55125C10.1217 5.18375 11.0317 5 12 5C12.9683 5 13.8783 5.18375 14.73 5.55125C15.5817 5.91875 16.3225 6.4175 16.9525 7.0475C17.5825 7.6775 18.0812 8.41833 18.4487 9.27C18.8162 10.1217 19 11.0317 19 12C19 12.9683 18.8162 13.8783 18.4487 14.73C18.0812 15.5817 17.5825 16.3225 16.9525 16.9525C16.3225 17.5825 15.5817 18.0812 14.73 18.4487C13.8783 18.8162 12.9683 19 12 19Z" fill="#A3ABB3"/>
</g>
</svg>
