<svg width="112" height="30" viewBox="0 0 112 30" fill="none" xmlns="http://www.w3.org/2000/svg">
<mask id="mask0_929_13604" style="mask-type:alpha" maskUnits="userSpaceOnUse" x="0" y="3" width="24" height="24">
<rect y="3" width="24" height="24" fill="#D9D9D9"/>
</mask>
<g mask="url(#mask0_929_13604)">
<path d="M11 16H5V14H11V8H13V14H19V16H13V22H11V16Z" fill="#111111"/>
</g>
<path d="M37.34 10.8C37.34 12.3067 37.6 13.6667 38.12 14.88C38.64 16.0933 39.4267 16.9933 40.48 17.58L39.26 19.26C37.8867 18.4867 36.9133 17.1533 36.34 15.26C36.0467 16.26 35.64 17.1467 35.12 17.92C34.6 18.68 33.9733 19.2867 33.24 19.74L31.96 18.16C33.0933 17.4667 33.9467 16.4667 34.52 15.16C35.0933 13.8533 35.38 12.4467 35.38 10.94V7.96H37.34V10.8ZM46.12 23.18H44.16V14.78H42.56V22.36H40.64V6.8H42.56V13.04H44.16V6.5H46.12V23.18ZM62.0767 21.26H47.3767V19.48H53.6767V16.86H49.1167V11.36H58.2967V9.38H49.0967V7.62H60.3567V13.04H51.1567V15.1H60.7167V16.86H55.7167V19.48H62.0767V21.26ZM77.1934 16.44H71.0334V19.44H68.9334V16.44H62.4934V14.72H77.1934V16.44ZM75.5534 22.86H64.2934V17.88H66.3734V21.1H75.5534V22.86ZM69.8334 6.84C70.9801 6.84 71.9868 6.98 72.8534 7.26C73.7334 7.54 74.4134 7.94667 74.8934 8.48C75.3734 9 75.6134 9.60667 75.6134 10.3C75.6134 10.9933 75.3734 11.6 74.8934 12.12C74.4134 12.6267 73.7334 13.02 72.8534 13.3C71.9868 13.58 70.9801 13.72 69.8334 13.72C68.6868 13.72 67.6801 13.58 66.8134 13.3C65.9468 13.02 65.2734 12.6267 64.7934 12.12C64.3134 11.6 64.0734 10.9933 64.0734 10.3C64.0734 9.60667 64.3134 9 64.7934 8.48C65.2734 7.94667 65.9468 7.54 66.8134 7.26C67.6801 6.98 68.6868 6.84 69.8334 6.84ZM69.8334 8.58C68.7268 8.58 67.8534 8.73333 67.2134 9.04C66.5734 9.33333 66.2534 9.75333 66.2534 10.3C66.2534 10.82 66.5734 11.2333 67.2134 11.54C67.8668 11.8333 68.7401 11.98 69.8334 11.98C70.9268 11.98 71.7934 11.8333 72.4334 11.54C73.0868 11.2333 73.4134 10.82 73.4134 10.3C73.4134 9.75333 73.0934 9.33333 72.4534 9.04C71.8134 8.73333 70.9401 8.58 69.8334 8.58ZM87.5197 11.22C87.5197 12.14 87.6797 13.0467 87.9997 13.94C88.333 14.82 88.8064 15.6133 89.4197 16.32C90.0464 17.0133 90.7864 17.54 91.6397 17.9L90.4997 19.6C89.5797 19.1867 88.7797 18.5733 88.0997 17.76C87.4197 16.9333 86.893 15.98 86.5197 14.9C86.133 16.0733 85.593 17.1067 84.8997 18C84.2197 18.8933 83.4197 19.5667 82.4997 20.02L81.3197 18.32C82.1464 17.9333 82.873 17.36 83.4997 16.6C84.1264 15.84 84.5997 14.9933 84.9197 14.06C85.253 13.1133 85.4197 12.1667 85.4197 11.22V9.92H81.9197V8.16H90.9997V9.92H87.5197V11.22ZM94.7997 23.18H92.7197V6.5H94.7997V23.18ZM109.636 15.78H104.896V19.46H111.256V21.22H96.5564V19.46H102.856V15.78H98.3364V7.74H109.496V9.46H100.396V14.02H109.636V15.78Z" fill="#111111"/>
</svg>
