<svg width="120" height="120" viewBox="0 0 120 120" fill="none" xmlns="http://www.w3.org/2000/svg">
<rect x="0.76" y="0.76" width="118.48" height="118.48" rx="59.24" fill="#EBEEF2"/>
<rect x="0.76" y="0.76" width="118.48" height="118.48" rx="59.24" stroke="#EBEEF2" stroke-width="1.52"/>
<path d="M60 75C53.8125 75 48.5156 72.7969 44.1094 68.3906C39.7031 63.9844 37.5 58.6875 37.5 52.5C37.5 46.3125 39.7031 41.0156 44.1094 36.6094C48.5156 32.2031 53.8125 30 60 30C66.1875 30 71.4844 32.2031 75.8906 36.6094C80.2969 41.0156 82.5 46.3125 82.5 52.5C82.5 58.6875 80.2969 63.9844 75.8906 68.3906C71.4844 72.7969 66.1875 75 60 75ZM15 120V104.25C15 101.062 15.8203 98.1328 17.4609 95.4609C19.1016 92.7891 21.2813 90.75 24 89.3438C29.8125 86.4375 35.7187 84.2578 41.7188 82.8047C47.7188 81.3516 53.8125 80.625 60 80.625C66.1875 80.625 72.2812 81.3516 78.2812 82.8047C84.2813 84.2578 90.1875 86.4375 96 89.3438C98.7188 90.75 100.898 92.7891 102.539 95.4609C104.18 98.1328 105 101.062 105 104.25V120H15Z" fill="white"/>
</svg>
