<svg width="90" height="90" viewBox="0 0 90 90" fill="none" xmlns="http://www.w3.org/2000/svg">
<path d="M45 45C38.8125 45 33.5156 42.7969 29.1094 38.3906C24.7031 33.9844 22.5 28.6875 22.5 22.5C22.5 16.3125 24.7031 11.0156 29.1094 6.60938C33.5156 2.20313 38.8125 0 45 0C51.1875 0 56.4844 2.20313 60.8906 6.60938C65.2969 11.0156 67.5 16.3125 67.5 22.5C67.5 28.6875 65.2969 33.9844 60.8906 38.3906C56.4844 42.7969 51.1875 45 45 45ZM0 90V74.25C0 71.0625 0.820312 68.1328 2.46094 65.4609C4.10156 62.7891 6.28125 60.75 9 59.3438C14.8125 56.4375 20.7188 54.2578 26.7188 52.8047C32.7188 51.3516 38.8125 50.625 45 50.625C51.1875 50.625 57.2812 51.3516 63.2812 52.8047C69.2812 54.2578 75.1875 56.4375 81 59.3438C83.7188 60.75 85.8984 62.7891 87.5391 65.4609C89.1797 68.1328 90 71.0625 90 74.25V90H0Z" fill="white"/>
</svg>
